<?xml version="1.0" encoding="utf-8"?>
<!-- Generator: Adobe Illustrator 25.0.0, SVG Export Plug-In . SVG Version: 6.00 Build 0)  -->
<svg version="1.1" id="圖層_1" xmlns="http://www.w3.org/2000/svg" xmlns:xlink="http://www.w3.org/1999/xlink" x="0px" y="0px"
	 viewBox="0 0 18 20" style="enable-background:new 0 0 18 20;" xml:space="preserve">
<style type="text/css">
	.st0{filter:url(#Adobe_OpacityMaskFilter);}
	.st1{filter:url(#Adobe_OpacityMaskFilter_1_);}
	.st2{filter:url(#Adobe_OpacityMaskFilter_2_);}
	.st3{fill:none;}
	.st4{fill:url(#SVGID_3_);}
	.st5{fill:#00C7F9;}
	.st6{fill:#FFFFFF;}
	.st7{fill:#F9A529;}
	.st8{fill:#188EA1;}
</style>
<g>
	<path class="st6" d="M9.2,9.6v1.7H11L16,6.2l-1.7-1.7L9.2,9.6z M17.4,4.9c0.2-0.2,0.2-0.5,0-0.6l-1.1-1.1c-0.2-0.2-0.5-0.2-0.6,0
		L14.8,4l1.7,1.7C16.5,5.8,17.4,4.9,17.4,4.9z"/>
	<path class="st6" d="M11.6,12.9H7.7V8.9l4-4H2.6C1.4,4.9,0.5,5.9,0.5,7v9.3c0,1.2,0.9,2.1,2.1,2.1h9.3c1.2,0,2.1-0.9,2.1-2.1v-5.8
		L11.6,12.9z"/>
</g>
</svg>
