<?xml version="1.0" encoding="utf-8"?>
<!-- Generator: Adobe Illustrator 25.0.0, SVG Export Plug-In . SVG Version: 6.00 Build 0)  -->
<svg version="1.1" id="圖層_1" xmlns="http://www.w3.org/2000/svg" xmlns:xlink="http://www.w3.org/1999/xlink" x="0px" y="0px"
	 viewBox="0 0 18 20" style="enable-background:new 0 0 18 20;" xml:space="preserve">
<style type="text/css">
	.st0{filter:url(#Adobe_OpacityMaskFilter);}
	.st1{filter:url(#Adobe_OpacityMaskFilter_1_);}
	.st2{filter:url(#Adobe_OpacityMaskFilter_2_);}
	.st3{fill:none;}
	.st4{fill:url(#SVGID_3_);}
	.st5{fill:#00C7F9;}
	.st6{fill:#FFFFFF;}
	.st7{fill:#F9A529;}
	.st8{fill:#188EA1;}
</style>
<g>
	<ellipse class="st6" cx="7.6" cy="4.6" rx="7.4" ry="3.4"/>
	<path class="st6" d="M17.2,12.7h-2.8V9.9c0-0.3-0.3-0.6-0.6-0.6h-1.5c-0.3,0-0.6,0.3-0.6,0.6v2.8H8.9c-0.3,0-0.6,0.3-0.6,0.6v1.5
		c0,0.3,0.3,0.6,0.6,0.6h2.8v2.8c0,0.3,0.3,0.6,0.6,0.6h1.5c0.3,0,0.6-0.3,0.6-0.6v-2.8h2.8c0.3,0,0.6-0.3,0.6-0.6v-1.5
		C17.8,13,17.6,12.7,17.2,12.7z"/>
	<path class="st6" d="M10.6,16.5H8.7c-0.8,0-1.4-0.5-1.6-1.2c-3.4-0.1-6.1-1.2-6.9-2.6v1.4c0,1.9,3.3,3.4,7.4,3.4
		c1.1,0,2.1-0.1,3-0.3V16.5z"/>
	<path class="st6" d="M7,13.3c0-0.3,0.1-0.7,0.3-0.9C3.8,12.3,1,11.2,0.2,9.7v1.4c0,1.8,3,3.2,6.8,3.4V13.3z"/>
	<g>
		<path class="st6" d="M13.9,8c0.4,0,0.8,0.2,1.1,0.4c0.1-0.2,0.1-0.3,0.1-0.5V6.5c-0.3,0.6-0.9,1-1.7,1.5H13.9z"/>
		<path class="st6" d="M10.6,11V9.7c0-0.3,0.1-0.6,0.2-0.8c-1,0.2-2.1,0.3-3.2,0.3C4,9.2,1,8.1,0.2,6.5v1.4c0,1.9,3.3,3.4,7.4,3.4
			C8.7,11.3,9.7,11.2,10.6,11z"/>
	</g>
</g>
</svg>
